<?xml version="1.0" standalone="no"?>
<!DOCTYPE svg PUBLIC "-//W3C//DTD SVG 20010904//EN"
 "http://www.w3.org/TR/2001/REC-SVG-20010904/DTD/svg10.dtd">
<svg version="1.0" xmlns="http://www.w3.org/2000/svg"
 width="215.000000pt" height="200.000000pt" viewBox="0 0 215.000000 200.000000"
 preserveAspectRatio="xMidYMid meet">

<g transform="translate(0.000000,200.000000) scale(0.100000,-0.100000)"
fill="#000000" stroke="none">
<path d="M475 1796 c-38 -17 -70 -48 -92 -89 -17 -29 -18 -72 -18 -507 l0
-475 23 -40 c13 -22 39 -52 59 -65 l36 -25 333 -5 c279 -4 336 -7 347 -20 8
-8 81 -95 162 -193 157 -191 193 -220 240 -199 14 7 30 23 35 38 6 14 10 103
10 198 l0 174 32 6 c47 9 94 45 120 91 l23 40 0 475 0 475 -23 40 c-13 22 -39
52 -59 65 l-37 25 -580 2 c-472 2 -587 0 -611 -11z m1179 -79 c55 -36 56 -48
56 -519 0 -392 -2 -436 -18 -468 -20 -41 -49 -57 -114 -65 l-48 -6 0 -195 c0
-107 -3 -194 -7 -193 -5 0 -80 87 -168 194 l-160 193 -335 4 c-375 3 -377 4
-406 73 -20 49 -21 880 -1 928 18 43 40 59 90 68 23 4 276 6 562 6 486 -2 523
-3 549 -20z"/>
<path d="M920 1600 c-12 -12 -20 -33 -20 -55 l0 -35 -78 0 c-83 0 -102 -9
-102 -46 0 -34 20 -43 100 -46 l75 -3 2 -55 3 -55 -52 -24 c-29 -14 -71 -44
-94 -68 -57 -58 -78 -114 -72 -197 5 -78 25 -111 89 -144 135 -71 341 42 448
246 l43 84 24 -23 c77 -73 45 -185 -71 -247 -53 -29 -65 -54 -45 -91 34 -64
210 34 255 141 21 51 19 153 -4 204 -24 53 -93 111 -156 130 -27 9 -95 17
-150 19 l-100 3 0 38 0 39 179 3 c112 1 185 7 193 13 17 15 17 53 0 68 -8 6
-81 12 -193 13 l-179 3 -3 35 c-6 64 -52 90 -92 50z m230 -375 c0 -28 -112
-195 -130 -195 -11 0 -14 183 -3 193 8 8 133 9 133 2z m-250 -155 c0 -122 -5
-133 -59 -110 -65 26 -65 118 -1 182 21 21 43 38 49 38 7 0 11 -36 11 -110z"/>
</g>
</svg>
